<svg xmlns="http://www.w3.org/2000/svg" width="77" height="50" viewBox="0 0 77 50"><g transform="translate(-164 -337)"><g transform="translate(164 337)" fill="#fff" stroke="#707070" stroke-width="1"><rect width="77" height="50" rx="18" stroke="none"/><rect x="0.5" y="0.5" width="76" height="49" rx="17.5" fill="none"/></g><path d="M7.328,0A2.436,2.436,0,0,1,9.7,2.42V7.814a2.657,2.657,0,0,1,3.833.34,2.475,2.475,0,0,1,3.366.889c2.655-.485,3.85,1.186,3.85,3.922,0,.148-.011.717-.011.864.009,3.348-1.678,4.154-2.07,6.684a1.3,1.3,0,0,1-1.281,1.095H8.117a2.593,2.593,0,0,1-2.369-1.538c-.7-1.56-2.649-5.154-4.177-5.809A2.3,2.3,0,0,1,0,12.1,2.6,2.6,0,0,1,3.614,9.718a7.342,7.342,0,0,1,1.346.765V2.42A2.475,2.475,0,0,1,7.328,0Zm.019,22.473H17.719a1.3,1.3,0,0,1,1.3,1.3v2.593a1.3,1.3,0,0,1-1.3,1.3H7.347a1.3,1.3,0,0,1-1.3-1.3V23.77A1.3,1.3,0,0,1,7.347,22.473Zm9.076,1.513a1.08,1.08,0,1,0,1.08,1.08A1.08,1.08,0,0,0,16.423,23.986Z" transform="translate(194 354.341)" fill="#c1b7b7"/><text transform="translate(183.5 342.5)" fill="#18c0ae" stroke="#707070" stroke-width="1" font-size="10" font-family="Monaco"><tspan x="0" y="10">&lt;&lt;&lt;&gt;&gt;&gt;</tspan></text></g></svg>